<?xml version="1.0" encoding="UTF-8"?>
<svg version="1.1" xmlns="http://www.w3.org/2000/svg" width="1000" height="1000">
<path d="M0 0 C4.05106775 1.35035592 4.40705426 3.02969942 6.4375 6.75 C7.14656431 8.03026438 7.85623897 9.31019085 8.56640625 10.58984375 C8.95328613 11.29351074 9.34016602 11.99717773 9.73876953 12.72216797 C12.07565254 16.94267097 14.47918781 21.12526243 16.875 25.3125 C17.38699951 26.2094458 17.89899902 27.1063916 18.42651367 28.03051758 C22.06610648 34.39765529 25.76316239 40.72866768 29.49389648 47.04272461 C32.67640627 52.43358491 35.79078643 57.85963366 38.88671875 63.30078125 C41.31853315 67.56779562 43.78518242 71.81449341 46.25 76.0625 C50.2167458 82.90019018 54.14918487 89.75660448 58.0625 96.625 C62.1509778 103.79825272 66.29451662 110.93555598 70.49462891 118.04394531 C73.67687429 123.43441011 76.79102127 128.8600464 79.88671875 134.30078125 C82.31853315 138.56779562 84.78518242 142.81449341 87.25 147.0625 C91.2167458 153.90019018 95.14918487 160.75660448 99.0625 167.625 C102.74699259 174.08945885 106.46744478 180.5299249 110.25 186.9375 C110.65202637 187.62102539 111.05405273 188.30455078 111.46826172 189.00878906 C113.44346013 192.36686912 115.42987612 195.71744911 117.43359375 199.05859375 C118.18530479 200.33048756 118.93662607 201.60261182 119.6875 202.875 C120.35136719 203.98617187 121.01523437 205.09734375 121.69921875 206.2421875 C123 209 123 209 122 212 C105.5 212 89 212 72 212 C72.33 213.32 72.66 214.64 73 216 C74.84727567 217.13070444 74.84727567 217.13070444 77.0625 217.75 C77.79597656 217.99234375 78.52945313 218.2346875 79.28515625 218.484375 C79.85105469 218.65453125 80.41695312 218.8246875 81 219 C81 219.66 81 220.32 81 221 C81.639375 221.268125 82.27875 221.53625 82.9375 221.8125 C85 223 85 223 86 226 C86.89982327 237.02283501 81.40231768 246.93298603 76.87695312 256.65875244 C75.17264121 260.3222548 73.48940197 263.99542326 71.8046875 267.66796875 C71.47273376 268.39036743 71.14078003 269.11276611 70.79876709 269.85705566 C68.10234068 275.73922074 65.51748129 281.66396999 63 287.625 C60.14204022 294.37964682 57.15082395 301.03462354 54.01171875 307.6640625 C50.72941034 314.6688422 47.64567526 321.76595002 44.52612305 328.84423828 C41.66237209 335.32457949 38.72867201 341.76775586 35.72148132 348.18255615 C32.54747053 354.95434145 29.42813896 361.75076143 26.31796265 368.55206299 C25.63701507 370.04061146 24.95537396 371.52884284 24.27310181 373.01678467 C20.58323068 381.06421078 16.92304766 389.12081721 13.3984375 397.2421875 C13.12172714 397.8770105 12.84501678 398.5118335 12.55992126 399.16589355 C11.26606222 402.13482953 9.98284168 405.10742105 8.71801758 408.08886719 C8.26837646 409.12430664 7.81873535 410.15974609 7.35546875 411.2265625 C6.97028076 412.12971191 6.58509277 413.03286133 6.18823242 413.96337891 C5 416 5 416 2 417 C-5.86466942 401.65639427 -12.89631617 385.9963224 -19.625 370.125 C-22.60329006 363.10282834 -25.78645383 356.28293505 -29.26171875 349.4921875 C-33.6249293 340.72654654 -37.44272662 331.68899421 -41.26171875 322.67578125 C-45.01465802 313.82165111 -48.85932893 305.13775569 -53.25390625 296.58203125 C-55.72736066 291.50785295 -57.86261838 286.30868156 -60.02197266 281.0949707 C-62.56551879 274.97268579 -65.29787576 268.97597674 -68.12890625 262.98046875 C-70.41692121 258.12987703 -72.65327839 253.25626213 -74.875 248.375 C-75.26872803 247.52107666 -75.66245605 246.66715332 -76.06811523 245.78735352 C-76.43493408 244.97838623 -76.80175293 244.16941895 -77.1796875 243.3359375 C-77.50694824 242.61970215 -77.83420898 241.9034668 -78.17138672 241.16552734 C-80.3543071 235.46060578 -81.218517 228.97859712 -78.875 223.25 C-75.71968819 219.46362582 -71.93840996 216.75975538 -67 216 C-66.67 214.68 -66.34 213.36 -66 212 C-83.82 212 -101.64 212 -120 212 C-120.33 211.34 -120.66 210.68 -121 210 C-119.99609375 207.78515625 -119.99609375 207.78515625 -118.4375 205.0625 C-117.87160156 204.06089844 -117.30570312 203.05929687 -116.72265625 202.02734375 C-116.15417969 201.02832031 -115.58570313 200.02929688 -115 199 C-114.12189394 197.37667633 -113.2468943 195.75166847 -112.375 194.125 C-105.35082078 181.25346739 -97.96109968 168.57827401 -90.50439453 155.95361328 C-86.99516022 150.00807647 -83.5606218 144.02180798 -80.1484375 138.02001953 C-73.66989337 126.62472316 -67.17432479 115.24286362 -60.50610352 103.95727539 C-57.32507467 98.56892365 -54.21232493 93.14527473 -51.1171875 87.70703125 C-48.66079584 83.39718043 -46.17449602 79.10474208 -43.6875 74.8125 C-43.22150391 74.008125 -42.75550781 73.20375 -42.27539062 72.375 C-40.39374254 69.12793102 -38.51134562 65.8812978 -36.62792969 62.63525391 C-31.36603054 53.56634986 -26.12909732 44.48436122 -20.9375 35.375 C-17.18238967 28.79082157 -13.40192949 22.22291636 -9.5625 15.6875 C-9.17376709 15.02476074 -8.78503418 14.36202148 -8.38452148 13.67919922 C-5.66693217 9.07027103 -2.85438357 4.52535151 0 0 Z " fill="#FE6A00" transform="translate(499,257)"/>
<path d="M0 0 C0.99 0 1.98 0 3 0 C3.91796875 1.59114583 4.8359375 3.18229167 5.75390625 4.7734375 C6.35356201 5.81282471 6.95321777 6.85221191 7.57104492 7.9230957 C8.91631595 10.25493181 10.26153882 12.58679562 11.60668945 14.91870117 C15.04112982 20.87236305 18.4764046 26.82553878 21.9140625 32.77734375 C27.73615976 42.85964007 33.54814068 52.94706356 39.3125 63.0625 C43.31875489 70.09187975 47.38304378 77.08369992 51.49780273 84.05004883 C55.39992568 90.66143403 59.20577055 97.32622141 63 104 C69.09930249 114.72005296 75.21965474 125.42392449 81.49389648 136.04272461 C84.67640627 141.43358491 87.79078643 146.85963366 90.88671875 152.30078125 C93.31853315 156.56779562 95.78518242 160.81449341 98.25 165.0625 C102.2167458 171.90019018 106.14918487 178.75660448 110.0625 185.625 C114.14642293 192.79026118 118.28322717 199.92092477 122.48144531 207.01977539 C125.79706828 212.63222817 129.02836622 218.2891656 132.234375 223.96484375 C133.76096021 226.58908425 135.37300288 229.10467875 137.0625 231.625 C139 235 139 235 138.62109375 237.2109375 C138.31365234 238.09652344 138.31365234 238.09652344 138 239 C107.20467974 239.04558829 76.40936717 239.08100026 45.61402125 239.10213066 C41.98145031 239.10463219 38.34887943 239.10722082 34.71630859 239.10986328 C33.99310444 239.1103879 33.26990029 239.11091252 32.52478085 239.11145304 C20.80230914 239.12016457 9.07985696 239.13593864 -2.64260314 239.15430559 C-14.6636835 239.17298386 -26.68475359 239.18411232 -38.70584786 239.18817699 C-45.46095924 239.19067916 -52.21602981 239.19671605 -58.97112656 239.21146011 C-65.32231276 239.22498123 -71.67343608 239.22923378 -78.02463531 239.22621536 C-80.3620068 239.22676799 -82.69938027 239.23077784 -85.03673935 239.23841095 C-88.21531657 239.24828665 -91.3936529 239.24599601 -94.57223511 239.24050903 C-95.50801891 239.24633472 -96.44380272 239.2521604 -97.40794361 239.25816262 C-98.25490743 239.25418052 -99.10187126 239.25019842 -99.97450066 239.24609566 C-100.70887977 239.2468551 -101.44325889 239.24761454 -102.19989192 239.24839699 C-104 239 -104 239 -106 237 C-105.81145674 225.49886093 -100.29624865 215.42345744 -95.15234375 205.39453125 C-92.22875648 199.54594092 -89.63895673 193.54321231 -87 187.5625 C-81.8882259 175.98926201 -76.65706032 164.499237 -71.15625 153.10546875 C-66.1646918 142.76140386 -61.21084056 132.43192172 -56.6875 121.8737793 C-55.11195903 118.22896689 -53.45416618 114.62713004 -51.76953125 111.03125 C-51.46829346 110.38775604 -51.16705566 109.74426208 -50.85668945 109.08126831 C-48.38588107 103.808546 -45.89758609 98.54409672 -43.40856934 93.279953 C-36.57034572 78.81567023 -29.83599178 64.31122011 -23.24710083 49.73162842 C-18.40776028 39.02847003 -13.42586731 28.403508 -8.3203125 17.82421875 C-5.46990142 11.91780459 -2.71550769 5.96953379 0 0 Z " fill="#FE6A00" transform="translate(641,504)"/>
<path d="M0 0 C0.99 0 1.98 0 3 0 C11.1904621 17.20336649 19.374141 34.40555432 27.125 51.8125 C27.92671631 53.61255493 27.92671631 53.61255493 28.74462891 55.44897461 C29.73630394 57.67702166 30.72785064 59.90512584 31.71923828 62.13330078 C35.69767039 71.03813301 39.91413132 79.82651289 44.14648438 88.61254883 C50.40730008 101.61326358 56.51781696 114.67589419 62.52978516 127.79345703 C63.98945494 130.9770012 65.45323854 134.15862513 66.91796875 137.33984375 C71.08933844 146.40906162 75.2315586 155.48690497 79.25 164.625 C81.48218019 169.69424507 83.80125613 174.68562672 86.3125 179.625 C93.09651129 192.99120989 99.27969972 206.6987704 105.125 220.5 C105.40794922 221.15073486 105.69089844 221.80146973 105.98242188 222.47192383 C107.87843788 227.04898765 108.74193629 231.08646703 109 236 C107 239 107 239 105.19989192 239.37259549 C104.46551281 239.37145633 103.73113369 239.37031717 102.97450066 239.36914349 C101.70405492 239.3781032 101.70405492 239.3781032 100.40794361 239.38724393 C99.0042679 239.37413614 99.0042679 239.37413614 97.57223511 239.36076355 C96.58230659 239.36332682 95.59237807 239.3658901 94.57245171 239.36853105 C91.23417391 239.37349757 87.89634204 239.35692868 84.55810547 239.34057617 C82.17360444 239.33973052 79.78910263 239.34020383 77.40460205 239.34190369 C71.58814078 239.34267766 65.77182711 239.32963361 59.95539962 239.31059071 C53.18918349 239.2891767 46.42298859 239.28465798 39.6567433 239.2812262 C27.58965309 239.27465578 15.52262362 239.25467866 3.45556641 239.22631836 C-8.26838883 239.19879303 -19.99232758 239.17755199 -31.71630859 239.16479492 C-32.79979982 239.16361267 -32.79979982 239.16361267 -33.90517975 239.16240653 C-37.52878362 239.15849149 -41.15238761 239.15470035 -44.77599168 239.15097082 C-74.85070369 239.11985655 -104.92534475 239.06678217 -135 239 C-136.16699219 235.33398438 -136.16699219 235.33398438 -134.6640625 232.328125 C-133.99117187 231.31234375 -133.31828125 230.2965625 -132.625 229.25 C-131.86958329 228.07993605 -131.1170952 226.90797736 -130.3671875 225.734375 C-129.77695801 224.81495117 -129.77695801 224.81495117 -129.17480469 223.87695312 C-127.25671074 220.81246721 -125.50393796 217.66043143 -123.75 214.5 C-122.99380475 213.1443554 -122.2372827 211.78889305 -121.48046875 210.43359375 C-121.0839209 209.72315918 -120.68737305 209.01272461 -120.27880859 208.28076172 C-113.82089731 196.76304366 -107.22275695 185.32516262 -100.50585938 173.95678711 C-97.32335592 168.5661336 -94.20912358 163.14020817 -91.11328125 157.69921875 C-88.68146685 153.43220438 -86.21481758 149.18550659 -83.75 144.9375 C-79.7832542 138.09980982 -75.85081513 131.24339552 -71.9375 124.375 C-67.84820914 117.20032077 -63.70312019 110.06204517 -59.50317383 102.95166016 C-55.99447552 97.00669898 -52.56024261 91.02114102 -49.1484375 85.02001953 C-42.66989337 73.62472316 -36.17432479 62.24286362 -29.50610352 50.95727539 C-26.33041234 45.57796514 -23.22268066 40.16353606 -20.1328125 34.734375 C-17.12096657 29.44992817 -14.0734399 24.18592125 -11.01391602 18.92895508 C-8.92728813 15.34273485 -6.85216644 11.75397089 -4.84765625 8.12109375 C-4.23792969 7.02925781 -3.62820313 5.93742187 -3 4.8125 C-2.484375 3.87019531 -1.96875 2.92789062 -1.4375 1.95703125 C-0.963125 1.31121094 -0.48875 0.66539062 0 0 Z " fill="#FE6A00" transform="translate(356,504)"/>
<path d="M0 0 C0.66 0.33 1.32 0.66 2 1 C0.20513796 7.04476527 -2.49322293 12.66175847 -5.125 18.375 C-5.59292969 19.39722656 -6.06085938 20.41945313 -6.54296875 21.47265625 C-7.69258292 23.98303821 -8.84500064 26.49209231 -10 29 C-10.33 29 -10.66 29 -11 29 C-10.50767951 22.57345938 -8.22233099 17.48193516 -5.5 11.6875 C-5.08363281 10.78193359 -4.66726563 9.87636719 -4.23828125 8.94335938 C-2.85697163 5.94605162 -1.47598783 2.95197565 0 0 Z " fill="#FE5700" transform="translate(518,635)"/>
<path d="M0 0 C0.99 0.33 1.98 0.66 3 1 C0.69 5.62 -1.62 10.24 -4 15 C-4.66 15 -5.32 15 -6 15 C-4.40109514 9.80355921 -2.25861997 4.93387858 0 0 Z " fill="#FE5700" transform="translate(568,524)"/>
<path d="M0 0 C0.33 0 0.66 0 1 0 C0.49202991 4.3177458 -0.19682779 8.03302114 -2 12 C-2.66 11.67 -3.32 11.34 -4 11 C-3.39301257 6.87248551 -1.96189209 3.6678852 0 0 Z " fill="#FE5800" transform="translate(541,584)"/>
<path d="M0 0 C0.75 1.5625 0.75 1.5625 1 4 C-0.13084437 6.50286409 -1.52139516 8.67007722 -3 11 C-3.66 10.67 -4.32 10.34 -5 10 C-3.66511872 6.40608886 -2.03977277 3.24509304 0 0 Z " fill="#FE5400" transform="translate(460,324)"/>
<path d="M0 0 C0.99 0.33 1.98 0.66 3 1 C0.525 5.455 0.525 5.455 -2 10 C-3.19156292 5.23374833 -2.3415946 4.12120649 0 0 Z " fill="#FE5700" transform="translate(388,448)"/>
<path d="M0 0 C0.66 0.33 1.32 0.66 2 1 C0.90931332 4.77545388 0.0916909 7.47043472 -3 10 C-3 5.66905042 -2.03435531 3.72965139 0 0 Z " fill="#FE5300" transform="translate(444,351)"/>
<path d="M0 0 C2.64465038 3.1254959 3.84414715 6.08788267 5 10 C4.01 10.495 4.01 10.495 3 11 C1.68 7.7 0.36 4.4 -1 1 C-0.67 0.67 -0.34 0.34 0 0 Z " fill="#FE5900" transform="translate(434,523)"/>
<path d="M0 0 C0.66 0.33 1.32 0.66 2 1 C1.34 2.65 0.68 4.3 0 6 C-0.66 6 -1.32 6 -2 6 C-1.34 4.02 -0.68 2.04 0 0 Z M-3 6 C-2.34 6.66 -1.68 7.32 -1 8 C-1.99 8.99 -2.98 9.98 -4 11 C-3.67 9.35 -3.34 7.7 -3 6 Z " fill="#FE5500" transform="translate(429,377)"/>
<path d="M0 0 C0.66 0 1.32 0 2 0 C0.87548273 2.9719385 -0.22293791 5.33440687 -2 8 C-2.66 8 -3.32 8 -4 8 C-2.87548273 5.0280615 -1.77706209 2.66559313 0 0 Z " fill="#FE5600" transform="translate(417,399)"/>
<path d="M0 0 C0.66 0 1.32 0 2 0 C1.39009109 3.55780196 0.4216319 6.6828589 -1 10 C-1.33 10 -1.66 10 -2 10 C-2.17942163 6.05272412 -2.09350689 3.4019487 0 0 Z " fill="#FE5600" transform="translate(534,599)"/>
<path d="M0 0 C0.66 0.99 1.32 1.98 2 3 C0.68 5.31 -0.64 7.62 -2 10 C-2.66 9.01 -3.32 8.02 -4 7 C-2.68 4.69 -1.36 2.38 0 0 Z " fill="#FE5300" transform="translate(306,590)"/>
<path d="M0 0 C0.66 0 1.32 0 2 0 C5 5.75 5 5.75 5 8 C2 7 2 7 0.8125 5.125 C0 3 0 3 0 0 Z " fill="#FE5400" transform="translate(459,580)"/>
<path d="M0 0 C0.99 0.33 1.98 0.66 3 1 C1.625 3.5 1.625 3.5 0 6 C-0.66 6 -1.32 6 -2 6 C-1.34 4.02 -0.68 2.04 0 0 Z M-3 6 C-2.34 6.66 -1.68 7.32 -1 8 C-1.66 8.66 -2.32 9.32 -3 10 C-3 8.68 -3 7.36 -3 6 Z " fill="#FE5701" transform="translate(336,538)"/>
<path d="M0 0 C0.99 0.33 1.98 0.66 3 1 C1.515 4.465 1.515 4.465 0 8 C-0.66 8 -1.32 8 -2 8 C-1.125 2.25 -1.125 2.25 0 0 Z " fill="#FE5600" transform="translate(548,568)"/>
<path d="M0 0 C2.15377564 2.62198774 3.40072174 4.64404172 4 8 C3.01 8.495 3.01 8.495 2 9 C0.4375 6.1875 0.4375 6.1875 -1 3 C-0.67 2.01 -0.34 1.02 0 0 Z " fill="#FE5100" transform="translate(445,547)"/>
<path d="M0 0 C0.66 0.99 1.32 1.98 2 3 C1.01 4.98 0.02 6.96 -1 9 C-1.66 8.67 -2.32 8.34 -3 8 C-1.125 2.25 -1.125 2.25 0 0 Z " fill="#FE5200" transform="translate(574,511)"/>
<path d="M0 0 C1.125 1.75 1.125 1.75 2 4 C1.125 6.25 1.125 6.25 0 8 C-0.99 7.67 -1.98 7.34 -3 7 C-2.01 4.69 -1.02 2.38 0 0 Z " fill="#FE5500" transform="translate(541,719)"/>
<path d="" fill="#FF0000" transform="translate(0,0)"/>
<path d="" fill="#FF0000" transform="translate(0,0)"/>
<path d="" fill="#FF0000" transform="translate(0,0)"/>
</svg>
